<svg id="Vrstva_2" xmlns="http://www.w3.org/2000/svg" viewBox="0 0 810.79 810.8"><defs><style>.cls-1,.cls-2,.cls-3{fill:none;stroke:#fff27e;stroke-linecap:round;}.cls-1,.cls-2{stroke-miterlimit:10;}.cls-1{stroke-width:23.8px;}.cls-2,.cls-3{stroke-width:25px;}.cls-3{stroke-linejoin:round;}</style></defs><path class="cls-1" d="M888.16,400.65A395.14,395.14,0,0,1,894,468.5C894,685.82,717.83,862,500.5,862S107,685.82,107,468.5A394.66,394.66,0,0,1,114.25,393C149.46,211.79,309,75,500.5,75,694.69,75,856,215.66,888.16,400.65Z" transform="translate(-95.1 -63.1)"></path><path class="cls-1" d="M372.63,288.51A251.47,251.47,0,0,1,631,290.7" transform="translate(-95.1 -63.1)"></path><path class="cls-1" d="M751.4,491.86q.39,6.9.38,13.89c0,139.06-112.72,251.78-251.78,251.78S248.22,644.81,248.22,505.75c0-4.64.12-9.23.37-13.8" transform="translate(-95.1 -63.1)"></path><path class="cls-1" d="M115.28,393.19A139.51,139.51,0,0,0,248.59,492h.11A139.49,139.49,0,0,0,372.63,288.51" transform="translate(-95.1 -63.1)"></path><path class="cls-1" d="M886.9,400.87A139.52,139.52,0,0,1,756.06,492c-1.56,0-3.12,0-4.66-.09A139.51,139.51,0,0,1,631,290.7" transform="translate(-95.1 -63.1)"></path><path class="cls-1" d="M598.43,273.94a99.95,99.95,0,1,0-196-.37" transform="translate(-95.1 -63.1)"></path><path class="cls-2" d="M574.21,495.4a75.29,75.29,0,1,1-143-2.1" transform="translate(-95.1 -63.1)"></path><line class="cls-1" x1="475.56" y1="430.21" x2="339.93" y2="428.21"></line><path class="cls-3" d="M696.82,487.38c.2,3.6.29,7.21.29,10.87,0,108.87-88.25,197.13-197.12,197.13S302.87,607.12,302.87,498.25q0-5.44.28-10.81" transform="translate(-95.1 -63.1)"></path></svg>